<svg xmlns="http://www.w3.org/2000/svg" xmlns:xlink="http://www.w3.org/1999/xlink" viewBox="0 0 400 400" aria-hidden="true" role="img" width="200" height="200" preserveAspectRatio="xMidYMid meet">
  <defs>
    <linearGradient id="gradient1" x1="0%" y1="0%" x2="100%" y2="100%">
      <stop offset="0%" stop-color="#4158D0" />
      <stop offset="46%" stop-color="#C850C0" />
      <stop offset="100%" stop-color="#FFCC70" />
    </linearGradient>
    <linearGradient id="gradient2" x1="30%" y1="10%" x2="70%" y2="90%">
      <stop offset="0%" stop-color="#43e97b" />
      <stop offset="100%" stop-color="#38f9d7" />
    </linearGradient>
    <filter id="shadow" x="-20%" y="-20%" width="140%" height="140%">
      <feDropShadow dx="2" dy="2" stdDeviation="4" flood-color="#000000" flood-opacity="0.3"/>
    </filter>
    <clipPath id="paperClip">
      <rect x="100" y="80" width="200" height="240" rx="15" ry="15" />
    </clipPath>
  </defs>
  
  <!-- Background circle -->
  <circle cx="200" cy="200" r="150" fill="url(#gradient1)" />
  
  <!-- Paper/exam document -->
  <rect x="100" y="80" width="200" height="240" rx="15" ry="15" fill="white" filter="url(#shadow)" />
  
  <!-- Paper lines -->
  <g clip-path="url(#paperClip)">
    <line x1="100" y1="120" x2="300" y2="120" stroke="#e0e0e0" stroke-width="2" />
    <line x1="100" y1="150" x2="300" y2="150" stroke="#e0e0e0" stroke-width="2" />
    <line x1="100" y1="180" x2="300" y2="180" stroke="#e0e0e0" stroke-width="2" />
    <line x1="100" y1="210" x2="300" y2="210" stroke="#e0e0e0" stroke-width="2" />
    <line x1="100" y1="240" x2="300" y2="240" stroke="#e0e0e0" stroke-width="2" />
    <line x1="100" y1="270" x2="300" y2="270" stroke="#e0e0e0" stroke-width="2" />
  </g>
  
  <!-- Checkmark -->
  <path d="M130 190 L160 220 L220 140" stroke="url(#gradient2)" stroke-width="12" stroke-linecap="round" stroke-linejoin="round" fill="none" />
  
  <!-- Digital elements - binary circles -->
  <circle cx="240" cy="190" r="10" fill="#43e97b" opacity="0.7">
    <animate attributeName="opacity" values="0.7;0.3;0.7" dur="2s" repeatCount="indefinite" />
  </circle>
  <circle cx="265" cy="190" r="10" fill="#38f9d7" opacity="0.5">
    <animate attributeName="opacity" values="0.5;0.9;0.5" dur="3s" repeatCount="indefinite" />
  </circle>
  <circle cx="290" cy="190" r="10" fill="#43e97b" opacity="0.7">
    <animate attributeName="opacity" values="0.7;0.3;0.7" dur="2.5s" repeatCount="indefinite" />
  </circle>
  
  <!-- Clock icon for timed exams -->
  <circle cx="200" cy="70" r="30" fill="white" filter="url(#shadow)" />
  <circle cx="200" cy="70" r="25" fill="none" stroke="#C850C0" stroke-width="2" />
  <line x1="200" y1="70" x2="200" y2="55" stroke="#C850C0" stroke-width="3" stroke-linecap="round" />
  <line x1="200" y1="70" x2="212" y2="75" stroke="#C850C0" stroke-width="3" stroke-linecap="round" />
  
  <!-- Decorative connecting lines -->
  <path d="M150 320 C150,350 250,350 250,320" fill="none" stroke="url(#gradient2)" stroke-width="3" opacity="0.7" />
  
  <!-- Small digital particles -->
  <g>
    <circle cx="160" cy="250" r="3" fill="#43e97b">
      <animate attributeName="cy" values="250;245;250" dur="3s" repeatCount="indefinite" />
    </circle>
    <circle cx="180" cy="260" r="2" fill="#38f9d7">
      <animate attributeName="cy" values="260;255;260" dur="2s" repeatCount="indefinite" />
    </circle>
    <circle cx="200" cy="255" r="4" fill="#43e97b">
      <animate attributeName="cy" values="255;250;255" dur="4s" repeatCount="indefinite" />
    </circle>
    <circle cx="220" cy="257" r="2" fill="#38f9d7">
      <animate attributeName="cy" values="257;252;257" dur="3.5s" repeatCount="indefinite" />
    </circle>
    <circle cx="240" cy="252" r="3" fill="#43e97b">
      <animate attributeName="cy" values="252;247;252" dur="2.5s" repeatCount="indefinite" />
    </circle>
  </g>
</svg>